# xmcd
#
# Track frame offsets:
#	150
#	22669
#	45375
#	67295
#	90200
#	106778
#	128447
#	148567
#	176127
#	199338
#	216705
#	235346
#	255759
#	277511
#
# Disc length: 3918 seconds
#
# Revision: 1905967694
# Processed by: cddbd v1.5.2PL0 Copyright (c) Steve Scherf et al.
# Submitted via: EZCDAudioConverter 8.0.2.1
#
DISCID=b60f4c0e
DTITLE=Don Hồ - Phiến Đá Sầu
DYEAR=2002
DGENRE=World Pop
TTITLE0=Don Hồ - Tình
TTITLE1=Don Hồ - Phiến Đá Sầu
TTITLE2=Don Hồ, Simon Wong - Thời đại khủng hoảng
TTITLE3=Don Hồ - Chân tình
TTITLE4=Don Hồ, Simon Wong - Men rượu tình hè
TTITLE5=Don Hồ - Tay trong tay ngoài
TTITLE6=Don Hồ - Cuộc đời éo le (Remix)
TTITLE7=Don Hồ - Ichiban
TTITLE8=Don Hồ - Người về từ lòng đất
TTITLE9=Don Hồ, Simon Wong - Ố ố ố tình
TTITLE10=Don Hồ, Simon Wong - Trong mơ có em về
TTITLE11=Don Hồ - Như cánh vạc bay
TTITLE12=Soundtrack - Thời đại khủng hoảng
TTITLE13=Soundtrack - Men rượu tình hè
EXTD=
EXTT0=
EXTT1=
EXTT2=
EXTT3=
EXTT4=
EXTT5=
EXTT6=
EXTT7=
EXTT8=
EXTT9=
EXTT10=
EXTT11=
EXTT12=
EXTT13=
PLAYORDER=
